<?xml version="1.0" encoding="UTF-8" standalone="no"?>
<!DOCTYPE svg PUBLIC "-//W3C//DTD SVG 1.1//EN"
 "http://www.w3.org/Graphics/SVG/1.1/DTD/svg11.dtd">
<!-- Generated by graphviz version 2.38.0 (20140413.2041)
 -->
<!-- Title: controllers_diagram Pages: 1 -->
<svg width="616pt" height="625pt"
 viewBox="0.00 0.00 615.53 625.00" xmlns="http://www.w3.org/2000/svg" xmlns:xlink="http://www.w3.org/1999/xlink">
<g id="graph0" class="graph" transform="scale(1 1) rotate(0) translate(237.714 387.5)">
<title>controllers_diagram</title>
<polygon fill="none" stroke="none" points="-237.714,237.5 -237.714,-387.5 377.821,-387.5 377.821,237.5 -237.714,237.5"/>
<!-- _diagram_info -->
<g id="node1" class="node"><title>_diagram_info</title>
<text text-anchor="start" x="7.55029" y="156.9" font-family="Times,serif" font-size="13.00">Controllers diagram</text>
<text text-anchor="start" x="7.55029" y="169.9" font-family="Times,serif" font-size="13.00">Date: Jul 17 2016 &#45; 00:42</text>
<text text-anchor="start" x="7.55029" y="182.9" font-family="Times,serif" font-size="13.00">Migration version: 20160717053113</text>
<text text-anchor="start" x="7.55029" y="195.9" font-family="Times,serif" font-size="13.00">Generated by RailRoady 1.5.1</text>
<text text-anchor="start" x="7.55029" y="208.9" font-family="Times,serif" font-size="13.00">http://railroady.prestonlee.com</text>
</g>
<!-- AnswerGroupsController -->
<g id="node2" class="node"><title>AnswerGroupsController</title>
<path fill="none" stroke="black" d="M-78.1553,107C-78.1553,107 56.1553,107 56.1553,107 62.1553,107 68.1553,101 68.1553,95 68.1553,95 68.1553,-83 68.1553,-83 68.1553,-89 62.1553,-95 56.1553,-95 56.1553,-95 -78.1553,-95 -78.1553,-95 -84.1553,-95 -90.1553,-89 -90.1553,-83 -90.1553,-83 -90.1553,95 -90.1553,95 -90.1553,101 -84.1553,107 -78.1553,107"/>
<text text-anchor="middle" x="-11" y="-79.8" font-family="Times,serif" font-size="14.00">AnswerGroupsController</text>
<polyline fill="none" stroke="black" points="-90.1553,-73 68.1553,-73 "/>
<text text-anchor="start" x="-82.1553" y="-57.8" font-family="Times,serif" font-size="14.00">create</text>
<text text-anchor="start" x="-82.1553" y="-43.8" font-family="Times,serif" font-size="14.00">destroy</text>
<text text-anchor="start" x="-82.1553" y="-29.8" font-family="Times,serif" font-size="14.00">edit</text>
<text text-anchor="start" x="-82.1553" y="-15.8" font-family="Times,serif" font-size="14.00">index</text>
<text text-anchor="start" x="-82.1553" y="-1.8" font-family="Times,serif" font-size="14.00">new</text>
<text text-anchor="start" x="-82.1553" y="12.2" font-family="Times,serif" font-size="14.00">show</text>
<text text-anchor="start" x="-82.1553" y="26.2" font-family="Times,serif" font-size="14.00">update</text>
<polyline fill="none" stroke="black" points="-90.1553,33 68.1553,33 "/>
<polyline fill="none" stroke="black" points="-90.1553,57 68.1553,57 "/>
<text text-anchor="start" x="-82.1553" y="72.2" font-family="Times,serif" font-size="14.00">_layout</text>
<text text-anchor="start" x="-82.1553" y="86.2" font-family="Times,serif" font-size="14.00">answer_group_params</text>
<text text-anchor="start" x="-82.1553" y="100.2" font-family="Times,serif" font-size="14.00">set_answer_group</text>
</g>
<!-- AnswersController -->
<g id="node3" class="node"><title>AnswersController</title>
<path fill="none" stroke="black" d="M-24.269,-127C-24.269,-127 74.269,-127 74.269,-127 80.269,-127 86.269,-133 86.269,-139 86.269,-139 86.269,-317 86.269,-317 86.269,-323 80.269,-329 74.269,-329 74.269,-329 -24.269,-329 -24.269,-329 -30.269,-329 -36.269,-323 -36.269,-317 -36.269,-317 -36.269,-139 -36.269,-139 -36.269,-133 -30.269,-127 -24.269,-127"/>
<text text-anchor="middle" x="25" y="-313.8" font-family="Times,serif" font-size="14.00">AnswersController</text>
<polyline fill="none" stroke="black" points="-36.269,-307 86.269,-307 "/>
<text text-anchor="start" x="-28.269" y="-291.8" font-family="Times,serif" font-size="14.00">create</text>
<text text-anchor="start" x="-28.269" y="-277.8" font-family="Times,serif" font-size="14.00">destroy</text>
<text text-anchor="start" x="-28.269" y="-263.8" font-family="Times,serif" font-size="14.00">edit</text>
<text text-anchor="start" x="-28.269" y="-249.8" font-family="Times,serif" font-size="14.00">index</text>
<text text-anchor="start" x="-28.269" y="-235.8" font-family="Times,serif" font-size="14.00">new</text>
<text text-anchor="start" x="-28.269" y="-221.8" font-family="Times,serif" font-size="14.00">show</text>
<text text-anchor="start" x="-28.269" y="-207.8" font-family="Times,serif" font-size="14.00">update</text>
<polyline fill="none" stroke="black" points="-36.269,-201 86.269,-201 "/>
<polyline fill="none" stroke="black" points="-36.269,-177 86.269,-177 "/>
<text text-anchor="start" x="-28.269" y="-161.8" font-family="Times,serif" font-size="14.00">_layout</text>
<text text-anchor="start" x="-28.269" y="-147.8" font-family="Times,serif" font-size="14.00">answer_params</text>
<text text-anchor="start" x="-28.269" y="-133.8" font-family="Times,serif" font-size="14.00">set_answer</text>
</g>
<!-- ApplicationController -->
<g id="node4" class="node"><title>ApplicationController</title>
<path fill="none" stroke="black" d="M246.179,233C246.179,233 361.821,233 361.821,233 367.821,233 373.821,227 373.821,221 373.821,221 373.821,153 373.821,153 373.821,147 367.821,141 361.821,141 361.821,141 246.179,141 246.179,141 240.179,141 234.179,147 234.179,153 234.179,153 234.179,221 234.179,221 234.179,227 240.179,233 246.179,233"/>
<text text-anchor="middle" x="304" y="156.2" font-family="Times,serif" font-size="14.00">ApplicationController</text>
<polyline fill="none" stroke="black" points="234.179,163 373.821,163 "/>
<polyline fill="none" stroke="black" points="234.179,187 373.821,187 "/>
<polyline fill="none" stroke="black" points="234.179,211 373.821,211 "/>
<text text-anchor="start" x="242.179" y="226.2" font-family="Times,serif" font-size="14.00">_layout</text>
</g>
<!-- PatientsController -->
<g id="node5" class="node"><title>PatientsController</title>
<path fill="none" stroke="black" d="M-167.938,-181C-167.938,-181 -74.062,-181 -74.062,-181 -68.062,-181 -62.062,-187 -62.062,-193 -62.062,-193 -62.062,-371 -62.062,-371 -62.062,-377 -68.062,-383 -74.062,-383 -74.062,-383 -167.938,-383 -167.938,-383 -173.938,-383 -179.938,-377 -179.938,-371 -179.938,-371 -179.938,-193 -179.938,-193 -179.938,-187 -173.938,-181 -167.938,-181"/>
<text text-anchor="middle" x="-121" y="-367.8" font-family="Times,serif" font-size="14.00">PatientsController</text>
<polyline fill="none" stroke="black" points="-179.938,-361 -62.062,-361 "/>
<text text-anchor="start" x="-171.938" y="-345.8" font-family="Times,serif" font-size="14.00">create</text>
<text text-anchor="start" x="-171.938" y="-331.8" font-family="Times,serif" font-size="14.00">destroy</text>
<text text-anchor="start" x="-171.938" y="-317.8" font-family="Times,serif" font-size="14.00">edit</text>
<text text-anchor="start" x="-171.938" y="-303.8" font-family="Times,serif" font-size="14.00">index</text>
<text text-anchor="start" x="-171.938" y="-289.8" font-family="Times,serif" font-size="14.00">new</text>
<text text-anchor="start" x="-171.938" y="-275.8" font-family="Times,serif" font-size="14.00">show</text>
<text text-anchor="start" x="-171.938" y="-261.8" font-family="Times,serif" font-size="14.00">update</text>
<polyline fill="none" stroke="black" points="-179.938,-255 -62.062,-255 "/>
<polyline fill="none" stroke="black" points="-179.938,-231 -62.062,-231 "/>
<text text-anchor="start" x="-171.938" y="-215.8" font-family="Times,serif" font-size="14.00">_layout</text>
<text text-anchor="start" x="-171.938" y="-201.8" font-family="Times,serif" font-size="14.00">patient_params</text>
<text text-anchor="start" x="-171.938" y="-187.8" font-family="Times,serif" font-size="14.00">set_patient</text>
</g>
<!-- QuestionsController -->
<g id="node6" class="node"><title>QuestionsController</title>
<path fill="none" stroke="black" d="M120.228,107C120.228,107 225.772,107 225.772,107 231.772,107 237.772,101 237.772,95 237.772,95 237.772,-83 237.772,-83 237.772,-89 231.772,-95 225.772,-95 225.772,-95 120.228,-95 120.228,-95 114.228,-95 108.228,-89 108.228,-83 108.228,-83 108.228,95 108.228,95 108.228,101 114.228,107 120.228,107"/>
<text text-anchor="middle" x="173" y="-79.8" font-family="Times,serif" font-size="14.00">QuestionsController</text>
<polyline fill="none" stroke="black" points="108.228,-73 237.772,-73 "/>
<text text-anchor="start" x="116.228" y="-57.8" font-family="Times,serif" font-size="14.00">create</text>
<text text-anchor="start" x="116.228" y="-43.8" font-family="Times,serif" font-size="14.00">destroy</text>
<text text-anchor="start" x="116.228" y="-29.8" font-family="Times,serif" font-size="14.00">edit</text>
<text text-anchor="start" x="116.228" y="-15.8" font-family="Times,serif" font-size="14.00">index</text>
<text text-anchor="start" x="116.228" y="-1.8" font-family="Times,serif" font-size="14.00">new</text>
<text text-anchor="start" x="116.228" y="12.2" font-family="Times,serif" font-size="14.00">show</text>
<text text-anchor="start" x="116.228" y="26.2" font-family="Times,serif" font-size="14.00">update</text>
<polyline fill="none" stroke="black" points="108.228,33 237.772,33 "/>
<polyline fill="none" stroke="black" points="108.228,57 237.772,57 "/>
<text text-anchor="start" x="116.228" y="72.2" font-family="Times,serif" font-size="14.00">_layout</text>
<text text-anchor="start" x="116.228" y="86.2" font-family="Times,serif" font-size="14.00">question_params</text>
<text text-anchor="start" x="116.228" y="100.2" font-family="Times,serif" font-size="14.00">set_question</text>
</g>
<!-- TypeTestsController -->
<g id="node7" class="node"><title>TypeTestsController</title>
<path fill="none" stroke="black" d="M138.046,-127C138.046,-127 243.954,-127 243.954,-127 249.954,-127 255.954,-133 255.954,-139 255.954,-139 255.954,-317 255.954,-317 255.954,-323 249.954,-329 243.954,-329 243.954,-329 138.046,-329 138.046,-329 132.046,-329 126.046,-323 126.046,-317 126.046,-317 126.046,-139 126.046,-139 126.046,-133 132.046,-127 138.046,-127"/>
<text text-anchor="middle" x="191" y="-313.8" font-family="Times,serif" font-size="14.00">TypeTestsController</text>
<polyline fill="none" stroke="black" points="126.046,-307 255.954,-307 "/>
<text text-anchor="start" x="134.046" y="-291.8" font-family="Times,serif" font-size="14.00">create</text>
<text text-anchor="start" x="134.046" y="-277.8" font-family="Times,serif" font-size="14.00">destroy</text>
<text text-anchor="start" x="134.046" y="-263.8" font-family="Times,serif" font-size="14.00">edit</text>
<text text-anchor="start" x="134.046" y="-249.8" font-family="Times,serif" font-size="14.00">index</text>
<text text-anchor="start" x="134.046" y="-235.8" font-family="Times,serif" font-size="14.00">new</text>
<text text-anchor="start" x="134.046" y="-221.8" font-family="Times,serif" font-size="14.00">show</text>
<text text-anchor="start" x="134.046" y="-207.8" font-family="Times,serif" font-size="14.00">update</text>
<polyline fill="none" stroke="black" points="126.046,-201 255.954,-201 "/>
<polyline fill="none" stroke="black" points="126.046,-177 255.954,-177 "/>
<text text-anchor="start" x="134.046" y="-161.8" font-family="Times,serif" font-size="14.00">_layout</text>
<text text-anchor="start" x="134.046" y="-147.8" font-family="Times,serif" font-size="14.00">set_type_test</text>
<text text-anchor="start" x="134.046" y="-133.8" font-family="Times,serif" font-size="14.00">type_test_params</text>
</g>
<!-- UsersController -->
<g id="node8" class="node"><title>UsersController</title>
<path fill="none" stroke="black" d="M-221.714,53C-221.714,53 -140.286,53 -140.286,53 -134.286,53 -128.286,47 -128.286,41 -128.286,41 -128.286,-137 -128.286,-137 -128.286,-143 -134.286,-149 -140.286,-149 -140.286,-149 -221.714,-149 -221.714,-149 -227.714,-149 -233.714,-143 -233.714,-137 -233.714,-137 -233.714,41 -233.714,41 -233.714,47 -227.714,53 -221.714,53"/>
<text text-anchor="middle" x="-181" y="-133.8" font-family="Times,serif" font-size="14.00">UsersController</text>
<polyline fill="none" stroke="black" points="-233.714,-127 -128.286,-127 "/>
<text text-anchor="start" x="-225.714" y="-111.8" font-family="Times,serif" font-size="14.00">create</text>
<text text-anchor="start" x="-225.714" y="-97.8" font-family="Times,serif" font-size="14.00">destroy</text>
<text text-anchor="start" x="-225.714" y="-83.8" font-family="Times,serif" font-size="14.00">edit</text>
<text text-anchor="start" x="-225.714" y="-69.8" font-family="Times,serif" font-size="14.00">index</text>
<text text-anchor="start" x="-225.714" y="-55.8" font-family="Times,serif" font-size="14.00">new</text>
<text text-anchor="start" x="-225.714" y="-41.8" font-family="Times,serif" font-size="14.00">show</text>
<text text-anchor="start" x="-225.714" y="-27.8" font-family="Times,serif" font-size="14.00">update</text>
<polyline fill="none" stroke="black" points="-233.714,-21 -128.286,-21 "/>
<polyline fill="none" stroke="black" points="-233.714,3 -128.286,3 "/>
<text text-anchor="start" x="-225.714" y="18.2" font-family="Times,serif" font-size="14.00">_layout</text>
<text text-anchor="start" x="-225.714" y="32.2" font-family="Times,serif" font-size="14.00">set_user</text>
<text text-anchor="start" x="-225.714" y="46.2" font-family="Times,serif" font-size="14.00">user_params</text>
</g>
</g>
</svg>
