<?xml version="1.0" encoding="UTF-8" standalone="no"?>
<!DOCTYPE svg PUBLIC "-//W3C//DTD SVG 1.1//EN"
 "http://www.w3.org/Graphics/SVG/1.1/DTD/svg11.dtd">
<!-- Generated by graphviz version 2.38.0 (20140413.2041)
 -->
<!-- Title: controllers_diagram Pages: 1 -->
<svg width="580pt" height="643pt"
 viewBox="0.00 0.00 579.53 643.00" xmlns="http://www.w3.org/2000/svg" xmlns:xlink="http://www.w3.org/1999/xlink">
<g id="graph0" class="graph" transform="scale(1 1) rotate(0) translate(201.714 405.5)">
<title>controllers_diagram</title>
<polygon fill="none" stroke="none" points="-201.714,237.5 -201.714,-405.5 377.821,-405.5 377.821,237.5 -201.714,237.5"/>
<!-- _diagram_info -->
<g id="node1" class="node"><title>_diagram_info</title>
<text text-anchor="start" x="8.31226" y="156.9" font-family="Times,serif" font-size="13.00">Controllers diagram</text>
<text text-anchor="start" x="8.31226" y="169.9" font-family="Times,serif" font-size="13.00">Date: Jul 16 2016 &#45; 23:43</text>
<text text-anchor="start" x="8.31226" y="182.9" font-family="Times,serif" font-size="13.00">Migration version: 20160713051417</text>
<text text-anchor="start" x="8.31226" y="195.9" font-family="Times,serif" font-size="13.00">Generated by RailRoady 1.5.1</text>
<text text-anchor="start" x="8.31226" y="208.9" font-family="Times,serif" font-size="13.00">http://railroady.prestonlee.com</text>
</g>
<!-- AnswerGroupsController -->
<g id="node2" class="node"><title>AnswerGroupsController</title>
<path fill="none" stroke="black" d="M-78.1553,107C-78.1553,107 56.1553,107 56.1553,107 62.1553,107 68.1553,101 68.1553,95 68.1553,95 68.1553,-83 68.1553,-83 68.1553,-89 62.1553,-95 56.1553,-95 56.1553,-95 -78.1553,-95 -78.1553,-95 -84.1553,-95 -90.1553,-89 -90.1553,-83 -90.1553,-83 -90.1553,95 -90.1553,95 -90.1553,101 -84.1553,107 -78.1553,107"/>
<text text-anchor="middle" x="-11" y="-79.8" font-family="Times,serif" font-size="14.00">AnswerGroupsController</text>
<polyline fill="none" stroke="black" points="-90.1553,-73 68.1553,-73 "/>
<text text-anchor="start" x="-82.1553" y="-57.8" font-family="Times,serif" font-size="14.00">create</text>
<text text-anchor="start" x="-82.1553" y="-43.8" font-family="Times,serif" font-size="14.00">destroy</text>
<text text-anchor="start" x="-82.1553" y="-29.8" font-family="Times,serif" font-size="14.00">edit</text>
<text text-anchor="start" x="-82.1553" y="-15.8" font-family="Times,serif" font-size="14.00">index</text>
<text text-anchor="start" x="-82.1553" y="-1.8" font-family="Times,serif" font-size="14.00">new</text>
<text text-anchor="start" x="-82.1553" y="12.2" font-family="Times,serif" font-size="14.00">show</text>
<text text-anchor="start" x="-82.1553" y="26.2" font-family="Times,serif" font-size="14.00">update</text>
<polyline fill="none" stroke="black" points="-90.1553,33 68.1553,33 "/>
<polyline fill="none" stroke="black" points="-90.1553,57 68.1553,57 "/>
<text text-anchor="start" x="-82.1553" y="72.2" font-family="Times,serif" font-size="14.00">_layout</text>
<text text-anchor="start" x="-82.1553" y="86.2" font-family="Times,serif" font-size="14.00">answer_group_params</text>
<text text-anchor="start" x="-82.1553" y="100.2" font-family="Times,serif" font-size="14.00">set_answer_group</text>
</g>
<!-- AnswersController -->
<g id="node3" class="node"><title>AnswersController</title>
<path fill="none" stroke="black" d="M-42.269,-127C-42.269,-127 56.269,-127 56.269,-127 62.269,-127 68.269,-133 68.269,-139 68.269,-139 68.269,-317 68.269,-317 68.269,-323 62.269,-329 56.269,-329 56.269,-329 -42.269,-329 -42.269,-329 -48.269,-329 -54.269,-323 -54.269,-317 -54.269,-317 -54.269,-139 -54.269,-139 -54.269,-133 -48.269,-127 -42.269,-127"/>
<text text-anchor="middle" x="7" y="-313.8" font-family="Times,serif" font-size="14.00">AnswersController</text>
<polyline fill="none" stroke="black" points="-54.269,-307 68.269,-307 "/>
<text text-anchor="start" x="-46.269" y="-291.8" font-family="Times,serif" font-size="14.00">create</text>
<text text-anchor="start" x="-46.269" y="-277.8" font-family="Times,serif" font-size="14.00">destroy</text>
<text text-anchor="start" x="-46.269" y="-263.8" font-family="Times,serif" font-size="14.00">edit</text>
<text text-anchor="start" x="-46.269" y="-249.8" font-family="Times,serif" font-size="14.00">index</text>
<text text-anchor="start" x="-46.269" y="-235.8" font-family="Times,serif" font-size="14.00">new</text>
<text text-anchor="start" x="-46.269" y="-221.8" font-family="Times,serif" font-size="14.00">show</text>
<text text-anchor="start" x="-46.269" y="-207.8" font-family="Times,serif" font-size="14.00">update</text>
<polyline fill="none" stroke="black" points="-54.269,-201 68.269,-201 "/>
<polyline fill="none" stroke="black" points="-54.269,-177 68.269,-177 "/>
<text text-anchor="start" x="-46.269" y="-161.8" font-family="Times,serif" font-size="14.00">_layout</text>
<text text-anchor="start" x="-46.269" y="-147.8" font-family="Times,serif" font-size="14.00">answer_params</text>
<text text-anchor="start" x="-46.269" y="-133.8" font-family="Times,serif" font-size="14.00">set_answer</text>
</g>
<!-- ApplicationController -->
<g id="node4" class="node"><title>ApplicationController</title>
<path fill="none" stroke="black" d="M246.179,233C246.179,233 361.821,233 361.821,233 367.821,233 373.821,227 373.821,221 373.821,221 373.821,153 373.821,153 373.821,147 367.821,141 361.821,141 361.821,141 246.179,141 246.179,141 240.179,141 234.179,147 234.179,153 234.179,153 234.179,221 234.179,221 234.179,227 240.179,233 246.179,233"/>
<text text-anchor="middle" x="304" y="156.2" font-family="Times,serif" font-size="14.00">ApplicationController</text>
<polyline fill="none" stroke="black" points="234.179,163 373.821,163 "/>
<polyline fill="none" stroke="black" points="234.179,187 373.821,187 "/>
<polyline fill="none" stroke="black" points="234.179,211 373.821,211 "/>
<text text-anchor="start" x="242.179" y="226.2" font-family="Times,serif" font-size="14.00">_layout</text>
</g>
<!-- MchatTestsController -->
<g id="node5" class="node"><title>MchatTestsController</title>
<path fill="none" stroke="black" d="M120.058,107C120.058,107 233.942,107 233.942,107 239.942,107 245.942,101 245.942,95 245.942,95 245.942,-97 245.942,-97 245.942,-103 239.942,-109 233.942,-109 233.942,-109 120.058,-109 120.058,-109 114.058,-109 108.058,-103 108.058,-97 108.058,-97 108.058,95 108.058,95 108.058,101 114.058,107 120.058,107"/>
<text text-anchor="middle" x="177" y="-93.8" font-family="Times,serif" font-size="14.00">MchatTestsController</text>
<polyline fill="none" stroke="black" points="108.058,-87 245.942,-87 "/>
<text text-anchor="start" x="116.058" y="-71.8" font-family="Times,serif" font-size="14.00">create</text>
<text text-anchor="start" x="116.058" y="-57.8" font-family="Times,serif" font-size="14.00">destroy</text>
<text text-anchor="start" x="116.058" y="-43.8" font-family="Times,serif" font-size="14.00">edit</text>
<text text-anchor="start" x="116.058" y="-29.8" font-family="Times,serif" font-size="14.00">index</text>
<text text-anchor="start" x="116.058" y="-15.8" font-family="Times,serif" font-size="14.00">new</text>
<text text-anchor="start" x="116.058" y="-1.8" font-family="Times,serif" font-size="14.00">show</text>
<text text-anchor="start" x="116.058" y="12.2" font-family="Times,serif" font-size="14.00">take_test</text>
<text text-anchor="start" x="116.058" y="26.2" font-family="Times,serif" font-size="14.00">update</text>
<polyline fill="none" stroke="black" points="108.058,33 245.942,33 "/>
<polyline fill="none" stroke="black" points="108.058,57 245.942,57 "/>
<text text-anchor="start" x="116.058" y="72.2" font-family="Times,serif" font-size="14.00">_layout</text>
<text text-anchor="start" x="116.058" y="86.2" font-family="Times,serif" font-size="14.00">mchat_test_params</text>
<text text-anchor="start" x="116.058" y="100.2" font-family="Times,serif" font-size="14.00">set_mchat_test</text>
</g>
<!-- PatientsController -->
<g id="node6" class="node"><title>PatientsController</title>
<path fill="none" stroke="black" d="M156.062,-145C156.062,-145 249.938,-145 249.938,-145 255.938,-145 261.938,-151 261.938,-157 261.938,-157 261.938,-335 261.938,-335 261.938,-341 255.938,-347 249.938,-347 249.938,-347 156.062,-347 156.062,-347 150.062,-347 144.062,-341 144.062,-335 144.062,-335 144.062,-157 144.062,-157 144.062,-151 150.062,-145 156.062,-145"/>
<text text-anchor="middle" x="203" y="-331.8" font-family="Times,serif" font-size="14.00">PatientsController</text>
<polyline fill="none" stroke="black" points="144.062,-325 261.938,-325 "/>
<text text-anchor="start" x="152.062" y="-309.8" font-family="Times,serif" font-size="14.00">create</text>
<text text-anchor="start" x="152.062" y="-295.8" font-family="Times,serif" font-size="14.00">destroy</text>
<text text-anchor="start" x="152.062" y="-281.8" font-family="Times,serif" font-size="14.00">edit</text>
<text text-anchor="start" x="152.062" y="-267.8" font-family="Times,serif" font-size="14.00">index</text>
<text text-anchor="start" x="152.062" y="-253.8" font-family="Times,serif" font-size="14.00">new</text>
<text text-anchor="start" x="152.062" y="-239.8" font-family="Times,serif" font-size="14.00">show</text>
<text text-anchor="start" x="152.062" y="-225.8" font-family="Times,serif" font-size="14.00">update</text>
<polyline fill="none" stroke="black" points="144.062,-219 261.938,-219 "/>
<polyline fill="none" stroke="black" points="144.062,-195 261.938,-195 "/>
<text text-anchor="start" x="152.062" y="-179.8" font-family="Times,serif" font-size="14.00">_layout</text>
<text text-anchor="start" x="152.062" y="-165.8" font-family="Times,serif" font-size="14.00">patient_params</text>
<text text-anchor="start" x="152.062" y="-151.8" font-family="Times,serif" font-size="14.00">set_patient</text>
</g>
<!-- UsersController -->
<g id="node7" class="node"><title>UsersController</title>
<path fill="none" stroke="black" d="M-185.714,-199C-185.714,-199 -104.286,-199 -104.286,-199 -98.2861,-199 -92.2861,-205 -92.2861,-211 -92.2861,-211 -92.2861,-389 -92.2861,-389 -92.2861,-395 -98.2861,-401 -104.286,-401 -104.286,-401 -185.714,-401 -185.714,-401 -191.714,-401 -197.714,-395 -197.714,-389 -197.714,-389 -197.714,-211 -197.714,-211 -197.714,-205 -191.714,-199 -185.714,-199"/>
<text text-anchor="middle" x="-145" y="-385.8" font-family="Times,serif" font-size="14.00">UsersController</text>
<polyline fill="none" stroke="black" points="-197.714,-379 -92.2861,-379 "/>
<text text-anchor="start" x="-189.714" y="-363.8" font-family="Times,serif" font-size="14.00">create</text>
<text text-anchor="start" x="-189.714" y="-349.8" font-family="Times,serif" font-size="14.00">destroy</text>
<text text-anchor="start" x="-189.714" y="-335.8" font-family="Times,serif" font-size="14.00">edit</text>
<text text-anchor="start" x="-189.714" y="-321.8" font-family="Times,serif" font-size="14.00">index</text>
<text text-anchor="start" x="-189.714" y="-307.8" font-family="Times,serif" font-size="14.00">new</text>
<text text-anchor="start" x="-189.714" y="-293.8" font-family="Times,serif" font-size="14.00">show</text>
<text text-anchor="start" x="-189.714" y="-279.8" font-family="Times,serif" font-size="14.00">update</text>
<polyline fill="none" stroke="black" points="-197.714,-273 -92.2861,-273 "/>
<polyline fill="none" stroke="black" points="-197.714,-249 -92.2861,-249 "/>
<text text-anchor="start" x="-189.714" y="-233.8" font-family="Times,serif" font-size="14.00">_layout</text>
<text text-anchor="start" x="-189.714" y="-219.8" font-family="Times,serif" font-size="14.00">set_user</text>
<text text-anchor="start" x="-189.714" y="-205.8" font-family="Times,serif" font-size="14.00">user_params</text>
</g>
</g>
</svg>
