<?xml version="1.0" encoding="UTF-8" standalone="no"?>
<!DOCTYPE svg PUBLIC "-//W3C//DTD SVG 1.1//EN"
 "http://www.w3.org/Graphics/SVG/1.1/DTD/svg11.dtd">
<!-- Generated by graphviz version 2.38.0 (20140413.2041)
 -->
<!-- Title: models_diagram Pages: 1 -->
<svg width="710pt" height="590pt"
 viewBox="0.00 0.00 709.55 590.00" xmlns="http://www.w3.org/2000/svg" xmlns:xlink="http://www.w3.org/1999/xlink">
<g id="graph0" class="graph" transform="scale(1 1) rotate(0) translate(4 586)">
<title>models_diagram</title>
<polygon fill="none" stroke="none" points="-4,4 -4,-586 705.55,-586 705.55,4 -4,4"/>
<!-- _diagram_info -->
<g id="node1" class="node"><title>_diagram_info</title>
<text text-anchor="start" x="8" y="-553.6" font-family="Times,serif" font-size="13.00">Models diagram</text>
<text text-anchor="start" x="8" y="-540.6" font-family="Times,serif" font-size="13.00">Date: Jul 16 2016 &#45; 23:43</text>
<text text-anchor="start" x="8" y="-527.6" font-family="Times,serif" font-size="13.00">Migration version: 20160713051417</text>
<text text-anchor="start" x="8" y="-514.6" font-family="Times,serif" font-size="13.00">Generated by RailRoady 1.5.1</text>
<text text-anchor="start" x="8" y="-501.6" font-family="Times,serif" font-size="13.00">http://railroady.prestonlee.com</text>
</g>
<!-- Answer -->
<g id="node2" class="node"><title>Answer</title>
<path fill="none" stroke="black" d="M313.825,-151.5C313.825,-151.5 537.55,-151.5 537.55,-151.5 543.55,-151.5 549.55,-157.5 549.55,-163.5 549.55,-163.5 549.55,-253.5 549.55,-253.5 549.55,-259.5 543.55,-265.5 537.55,-265.5 537.55,-265.5 313.825,-265.5 313.825,-265.5 307.825,-265.5 301.825,-259.5 301.825,-253.5 301.825,-253.5 301.825,-163.5 301.825,-163.5 301.825,-157.5 307.825,-151.5 313.825,-151.5"/>
<text text-anchor="middle" x="425.688" y="-250.3" font-family="Times,serif" font-size="14.00">Answer</text>
<polyline fill="none" stroke="black" points="301.825,-243.5 549.55,-243.5 "/>
<text text-anchor="start" x="309.825" y="-228.3" font-family="Times,serif" font-size="14.00">id :integer</text>
<text text-anchor="start" x="309.825" y="-214.3" font-family="Times,serif" font-size="14.00">date :date</text>
<text text-anchor="start" x="309.825" y="-200.3" font-family="Times,serif" font-size="14.00">user_id :integer</text>
<text text-anchor="start" x="309.825" y="-186.3" font-family="Times,serif" font-size="14.00">patient_id :integer</text>
<text text-anchor="start" x="309.825" y="-172.3" font-family="Times,serif" font-size="14.00">created_at :timestamp without time zone</text>
<text text-anchor="start" x="309.825" y="-158.3" font-family="Times,serif" font-size="14.00">updated_at :timestamp without time zone</text>
</g>
<!-- AnswerGroup -->
<g id="node3" class="node"><title>AnswerGroup</title>
<path fill="none" stroke="black" d="M313.825,-0.5C313.825,-0.5 537.55,-0.5 537.55,-0.5 543.55,-0.5 549.55,-6.5 549.55,-12.5 549.55,-12.5 549.55,-102.5 549.55,-102.5 549.55,-108.5 543.55,-114.5 537.55,-114.5 537.55,-114.5 313.825,-114.5 313.825,-114.5 307.825,-114.5 301.825,-108.5 301.825,-102.5 301.825,-102.5 301.825,-12.5 301.825,-12.5 301.825,-6.5 307.825,-0.5 313.825,-0.5"/>
<text text-anchor="middle" x="425.688" y="-99.3" font-family="Times,serif" font-size="14.00">AnswerGroup</text>
<polyline fill="none" stroke="black" points="301.825,-92.5 549.55,-92.5 "/>
<text text-anchor="start" x="309.825" y="-77.3" font-family="Times,serif" font-size="14.00">id :integer</text>
<text text-anchor="start" x="309.825" y="-63.3" font-family="Times,serif" font-size="14.00">option :boolean</text>
<text text-anchor="start" x="309.825" y="-49.3" font-family="Times,serif" font-size="14.00">mchat_test_id :integer</text>
<text text-anchor="start" x="309.825" y="-35.3" font-family="Times,serif" font-size="14.00">answer_id :integer</text>
<text text-anchor="start" x="309.825" y="-21.3" font-family="Times,serif" font-size="14.00">created_at :timestamp without time zone</text>
<text text-anchor="start" x="309.825" y="-7.3" font-family="Times,serif" font-size="14.00">updated_at :timestamp without time zone</text>
</g>
<!-- Answer&#45;&gt;AnswerGroup -->
<g id="edge1" class="edge"><title>Answer&#45;&gt;AnswerGroup</title>
<path fill="none" stroke="#adcbc4" d="M425.688,-143.018C425.688,-137.024 425.688,-130.942 425.688,-124.931"/>
<ellipse fill="none" stroke="#adcbc4" cx="425.688" cy="-147.169" rx="4" ry="4"/>
<polygon fill="#adcbc4" stroke="#adcbc4" points="425.688,-124.91 430.188,-114.91 425.688,-119.91 425.688,-114.91 425.688,-114.91 425.688,-114.91 425.688,-119.91 421.188,-114.91 425.688,-124.91 425.688,-124.91"/>
</g>
<!-- MchatTest -->
<g id="node4" class="node"><title>MchatTest</title>
<path fill="none" stroke="black" d="M465.825,-323.5C465.825,-323.5 689.55,-323.5 689.55,-323.5 695.55,-323.5 701.55,-329.5 701.55,-335.5 701.55,-335.5 701.55,-411.5 701.55,-411.5 701.55,-417.5 695.55,-423.5 689.55,-423.5 689.55,-423.5 465.825,-423.5 465.825,-423.5 459.825,-423.5 453.825,-417.5 453.825,-411.5 453.825,-411.5 453.825,-335.5 453.825,-335.5 453.825,-329.5 459.825,-323.5 465.825,-323.5"/>
<text text-anchor="middle" x="577.688" y="-408.3" font-family="Times,serif" font-size="14.00">MchatTest</text>
<polyline fill="none" stroke="black" points="453.825,-401.5 701.55,-401.5 "/>
<text text-anchor="start" x="461.825" y="-386.3" font-family="Times,serif" font-size="14.00">id :integer</text>
<text text-anchor="start" x="461.825" y="-372.3" font-family="Times,serif" font-size="14.00">order :integer</text>
<text text-anchor="start" x="461.825" y="-358.3" font-family="Times,serif" font-size="14.00">question :character varying</text>
<text text-anchor="start" x="461.825" y="-344.3" font-family="Times,serif" font-size="14.00">created_at :timestamp without time zone</text>
<text text-anchor="start" x="461.825" y="-330.3" font-family="Times,serif" font-size="14.00">updated_at :timestamp without time zone</text>
</g>
<!-- MchatTest&#45;&gt;Answer -->
<g id="edge3" class="edge"><title>MchatTest&#45;&gt;Answer</title>
<path fill="none" stroke="#634d1b" d="M524.801,-315.786C511.873,-301.922 497.959,-287.002 484.763,-272.85"/>
<polygon fill="#634d1b" stroke="#634d1b" points="524.85,-315.839 528.379,-326.221 528.26,-319.496 531.67,-323.152 531.67,-323.152 531.67,-323.152 528.26,-319.496 534.961,-320.083 524.85,-315.839 524.85,-315.839"/>
<polygon fill="#634d1b" stroke="#634d1b" points="484.756,-272.843 481.227,-262.46 481.346,-269.186 477.936,-265.529 477.936,-265.529 477.936,-265.529 481.346,-269.186 474.645,-268.598 484.756,-272.843 484.756,-272.843"/>
</g>
<!-- MchatTest&#45;&gt;AnswerGroup -->
<g id="edge2" class="edge"><title>MchatTest&#45;&gt;AnswerGroup</title>
<path fill="none" stroke="#fa37ad" d="M585.568,-315.192C589.2,-267.973 587.548,-200.902 558.688,-151 552.466,-140.242 544.429,-130.441 535.39,-121.589"/>
<ellipse fill="none" stroke="#fa37ad" cx="585.227" cy="-319.195" rx="4" ry="4"/>
<polygon fill="#fa37ad" stroke="#fa37ad" points="535.279,-121.486 530.998,-111.39 531.61,-118.089 527.941,-114.692 527.941,-114.692 527.941,-114.692 531.61,-118.089 524.884,-117.994 535.279,-121.486 535.279,-121.486"/>
</g>
<!-- Patient -->
<g id="node5" class="node"><title>Patient</title>
<path fill="none" stroke="black" d="M161.825,-302.5C161.825,-302.5 385.55,-302.5 385.55,-302.5 391.55,-302.5 397.55,-308.5 397.55,-314.5 397.55,-314.5 397.55,-432.5 397.55,-432.5 397.55,-438.5 391.55,-444.5 385.55,-444.5 385.55,-444.5 161.825,-444.5 161.825,-444.5 155.825,-444.5 149.825,-438.5 149.825,-432.5 149.825,-432.5 149.825,-314.5 149.825,-314.5 149.825,-308.5 155.825,-302.5 161.825,-302.5"/>
<text text-anchor="middle" x="273.688" y="-429.3" font-family="Times,serif" font-size="14.00">Patient</text>
<polyline fill="none" stroke="black" points="149.825,-422.5 397.55,-422.5 "/>
<text text-anchor="start" x="157.825" y="-407.3" font-family="Times,serif" font-size="14.00">id :integer</text>
<text text-anchor="start" x="157.825" y="-393.3" font-family="Times,serif" font-size="14.00">name :character varying</text>
<text text-anchor="start" x="157.825" y="-379.3" font-family="Times,serif" font-size="14.00">rut :integer</text>
<text text-anchor="start" x="157.825" y="-365.3" font-family="Times,serif" font-size="14.00">dv :character varying</text>
<text text-anchor="start" x="157.825" y="-351.3" font-family="Times,serif" font-size="14.00">age :integer</text>
<text text-anchor="start" x="157.825" y="-337.3" font-family="Times,serif" font-size="14.00">sex :character varying</text>
<text text-anchor="start" x="157.825" y="-323.3" font-family="Times,serif" font-size="14.00">created_at :timestamp without time zone</text>
<text text-anchor="start" x="157.825" y="-309.3" font-family="Times,serif" font-size="14.00">updated_at :timestamp without time zone</text>
</g>
<!-- Patient&#45;&gt;Answer -->
<g id="edge4" class="edge"><title>Patient&#45;&gt;Answer</title>
<path fill="none" stroke="#5a9704" d="M344.677,-296.373C351.89,-288.638 359.163,-280.839 366.236,-273.254"/>
<ellipse fill="none" stroke="#5a9704" cx="341.76" cy="-299.502" rx="4.00002" ry="4.00002"/>
<polygon fill="#5a9704" stroke="#5a9704" points="366.412,-273.066 376.523,-268.821 369.822,-269.409 373.232,-265.752 373.232,-265.752 373.232,-265.752 369.822,-269.409 369.941,-262.683 366.412,-273.066 366.412,-273.066"/>
</g>
<!-- Patient&#45;&gt;AnswerGroup -->
<g id="edge5" class="edge"><title>Patient&#45;&gt;AnswerGroup</title>
<path fill="none" stroke="#1f960d" d="M264.587,-292.148C263.326,-247.762 268.263,-193.233 292.688,-151 298.91,-140.242 306.946,-130.441 315.986,-121.589"/>
<polygon fill="#1f960d" stroke="#1f960d" points="264.594,-292.333 260.492,-302.502 264.791,-297.329 264.988,-302.325 264.988,-302.325 264.988,-302.325 264.791,-297.329 269.485,-302.148 264.594,-292.333 264.594,-292.333"/>
<polygon fill="#1f960d" stroke="#1f960d" points="316.097,-121.486 326.492,-117.994 319.766,-118.089 323.434,-114.692 323.434,-114.692 323.434,-114.692 319.766,-118.089 320.377,-111.39 316.097,-121.486 316.097,-121.486"/>
</g>
<!-- User -->
<g id="node6" class="node"><title>User</title>
<path fill="none" stroke="black" d="M237.825,-481.5C237.825,-481.5 461.55,-481.5 461.55,-481.5 467.55,-481.5 473.55,-487.5 473.55,-493.5 473.55,-493.5 473.55,-569.5 473.55,-569.5 473.55,-575.5 467.55,-581.5 461.55,-581.5 461.55,-581.5 237.825,-581.5 237.825,-581.5 231.825,-581.5 225.825,-575.5 225.825,-569.5 225.825,-569.5 225.825,-493.5 225.825,-493.5 225.825,-487.5 231.825,-481.5 237.825,-481.5"/>
<text text-anchor="middle" x="349.688" y="-566.3" font-family="Times,serif" font-size="14.00">User</text>
<polyline fill="none" stroke="black" points="225.825,-559.5 473.55,-559.5 "/>
<text text-anchor="start" x="233.825" y="-544.3" font-family="Times,serif" font-size="14.00">id :integer</text>
<text text-anchor="start" x="233.825" y="-530.3" font-family="Times,serif" font-size="14.00">name :character varying</text>
<text text-anchor="start" x="233.825" y="-516.3" font-family="Times,serif" font-size="14.00">email :character varying</text>
<text text-anchor="start" x="233.825" y="-502.3" font-family="Times,serif" font-size="14.00">created_at :timestamp without time zone</text>
<text text-anchor="start" x="233.825" y="-488.3" font-family="Times,serif" font-size="14.00">updated_at :timestamp without time zone</text>
</g>
<!-- User&#45;&gt;Answer -->
<g id="edge6" class="edge"><title>User&#45;&gt;Answer</title>
<path fill="none" stroke="#e805aa" d="M392.875,-474.18C398.351,-464.834 403.237,-454.938 406.688,-445 425.721,-390.195 429.522,-324.062 429.113,-275.848"/>
<ellipse fill="none" stroke="#e805aa" cx="390.669" cy="-477.797" rx="4.00002" ry="4.00002"/>
<polygon fill="#e805aa" stroke="#e805aa" points="429.113,-275.841 433.465,-265.776 429.039,-270.841 428.966,-265.842 428.966,-265.842 428.966,-265.842 429.039,-270.841 424.466,-265.908 429.113,-275.841 429.113,-275.841"/>
</g>
<!-- User&#45;&gt;Patient -->
<g id="edge7" class="edge"><title>User&#45;&gt;Patient</title>
<path fill="none" stroke="#66521d" d="M321.183,-471.991C318.261,-465.993 315.259,-459.831 312.253,-453.659"/>
<polygon fill="#66521d" stroke="#66521d" points="321.261,-472.151 321.595,-483.112 323.451,-476.646 325.641,-481.141 325.641,-481.141 325.641,-481.141 323.451,-476.646 329.686,-479.17 321.261,-472.151 321.261,-472.151"/>
<polygon fill="#66521d" stroke="#66521d" points="312.232,-453.618 311.898,-442.657 310.043,-449.123 307.853,-444.628 307.853,-444.628 307.853,-444.628 310.043,-449.123 303.807,-446.599 312.232,-453.618 312.232,-453.618"/>
</g>
</g>
</svg>
