<?xml version="1.0" encoding="UTF-8" standalone="no"?>
<!DOCTYPE svg PUBLIC "-//W3C//DTD SVG 1.1//EN"
 "http://www.w3.org/Graphics/SVG/1.1/DTD/svg11.dtd">
<!-- Generated by graphviz version 2.38.0 (20140413.2041)
 -->
<!-- Title: models_diagram Pages: 1 -->
<svg width="822pt" height="590pt"
 viewBox="0.00 0.00 822.31 590.00" xmlns="http://www.w3.org/2000/svg" xmlns:xlink="http://www.w3.org/1999/xlink">
<g id="graph0" class="graph" transform="scale(1 1) rotate(0) translate(4 586)">
<title>models_diagram</title>
<polygon fill="none" stroke="none" points="-4,4 -4,-586 818.312,-586 818.312,4 -4,4"/>
<!-- _diagram_info -->
<g id="node1" class="node"><title>_diagram_info</title>
<text text-anchor="start" x="8" y="-553.6" font-family="Times,serif" font-size="13.00">Models diagram</text>
<text text-anchor="start" x="8" y="-540.6" font-family="Times,serif" font-size="13.00">Date: Jul 17 2016 &#45; 00:42</text>
<text text-anchor="start" x="8" y="-527.6" font-family="Times,serif" font-size="13.00">Migration version: 20160717053113</text>
<text text-anchor="start" x="8" y="-514.6" font-family="Times,serif" font-size="13.00">Generated by RailRoady 1.5.1</text>
<text text-anchor="start" x="8" y="-501.6" font-family="Times,serif" font-size="13.00">http://railroady.prestonlee.com</text>
</g>
<!-- Answer -->
<g id="node2" class="node"><title>Answer</title>
<path fill="none" stroke="black" d="M188.587,-151.5C188.587,-151.5 412.312,-151.5 412.312,-151.5 418.312,-151.5 424.312,-157.5 424.312,-163.5 424.312,-163.5 424.312,-253.5 424.312,-253.5 424.312,-259.5 418.312,-265.5 412.312,-265.5 412.312,-265.5 188.587,-265.5 188.587,-265.5 182.587,-265.5 176.587,-259.5 176.587,-253.5 176.587,-253.5 176.587,-163.5 176.587,-163.5 176.587,-157.5 182.587,-151.5 188.587,-151.5"/>
<text text-anchor="middle" x="300.45" y="-250.3" font-family="Times,serif" font-size="14.00">Answer</text>
<polyline fill="none" stroke="black" points="176.587,-243.5 424.312,-243.5 "/>
<text text-anchor="start" x="184.587" y="-228.3" font-family="Times,serif" font-size="14.00">id :integer</text>
<text text-anchor="start" x="184.587" y="-214.3" font-family="Times,serif" font-size="14.00">date :date</text>
<text text-anchor="start" x="184.587" y="-200.3" font-family="Times,serif" font-size="14.00">user_id :integer</text>
<text text-anchor="start" x="184.587" y="-186.3" font-family="Times,serif" font-size="14.00">patient_id :integer</text>
<text text-anchor="start" x="184.587" y="-172.3" font-family="Times,serif" font-size="14.00">created_at :timestamp without time zone</text>
<text text-anchor="start" x="184.587" y="-158.3" font-family="Times,serif" font-size="14.00">updated_at :timestamp without time zone</text>
</g>
<!-- AnswerGroup -->
<g id="node3" class="node"><title>AnswerGroup</title>
<path fill="none" stroke="black" d="M340.587,-0.5C340.587,-0.5 564.312,-0.5 564.312,-0.5 570.312,-0.5 576.312,-6.5 576.312,-12.5 576.312,-12.5 576.312,-102.5 576.312,-102.5 576.312,-108.5 570.312,-114.5 564.312,-114.5 564.312,-114.5 340.587,-114.5 340.587,-114.5 334.587,-114.5 328.587,-108.5 328.587,-102.5 328.587,-102.5 328.587,-12.5 328.587,-12.5 328.587,-6.5 334.587,-0.5 340.587,-0.5"/>
<text text-anchor="middle" x="452.45" y="-99.3" font-family="Times,serif" font-size="14.00">AnswerGroup</text>
<polyline fill="none" stroke="black" points="328.587,-92.5 576.312,-92.5 "/>
<text text-anchor="start" x="336.587" y="-77.3" font-family="Times,serif" font-size="14.00">id :integer</text>
<text text-anchor="start" x="336.587" y="-63.3" font-family="Times,serif" font-size="14.00">option :boolean</text>
<text text-anchor="start" x="336.587" y="-49.3" font-family="Times,serif" font-size="14.00">answer_id :integer</text>
<text text-anchor="start" x="336.587" y="-35.3" font-family="Times,serif" font-size="14.00">created_at :timestamp without time zone</text>
<text text-anchor="start" x="336.587" y="-21.3" font-family="Times,serif" font-size="14.00">updated_at :timestamp without time zone</text>
<text text-anchor="start" x="336.587" y="-7.3" font-family="Times,serif" font-size="14.00">question_id :integer</text>
</g>
<!-- Answer&#45;&gt;AnswerGroup -->
<g id="edge1" class="edge"><title>Answer&#45;&gt;AnswerGroup</title>
<path fill="none" stroke="#e2dc29" d="M363.673,-145.525C371.663,-137.692 379.847,-129.67 387.858,-121.817"/>
<ellipse fill="none" stroke="#e2dc29" cx="360.771" cy="-148.369" rx="4.00002" ry="4.00002"/>
<polygon fill="#e2dc29" stroke="#e2dc29" points="388.015,-121.663 398.306,-117.877 391.585,-118.163 395.156,-114.663 395.156,-114.663 395.156,-114.663 391.585,-118.163 392.006,-111.449 388.015,-121.663 388.015,-121.663"/>
</g>
<!-- Patient -->
<g id="node4" class="node"><title>Patient</title>
<path fill="none" stroke="black" d="M312.587,-302.5C312.587,-302.5 536.312,-302.5 536.312,-302.5 542.312,-302.5 548.312,-308.5 548.312,-314.5 548.312,-314.5 548.312,-432.5 548.312,-432.5 548.312,-438.5 542.312,-444.5 536.312,-444.5 536.312,-444.5 312.587,-444.5 312.587,-444.5 306.587,-444.5 300.587,-438.5 300.587,-432.5 300.587,-432.5 300.587,-314.5 300.587,-314.5 300.587,-308.5 306.587,-302.5 312.587,-302.5"/>
<text text-anchor="middle" x="424.45" y="-429.3" font-family="Times,serif" font-size="14.00">Patient</text>
<polyline fill="none" stroke="black" points="300.587,-422.5 548.312,-422.5 "/>
<text text-anchor="start" x="308.587" y="-407.3" font-family="Times,serif" font-size="14.00">id :integer</text>
<text text-anchor="start" x="308.587" y="-393.3" font-family="Times,serif" font-size="14.00">name :character varying</text>
<text text-anchor="start" x="308.587" y="-379.3" font-family="Times,serif" font-size="14.00">rut :integer</text>
<text text-anchor="start" x="308.587" y="-365.3" font-family="Times,serif" font-size="14.00">dv :character varying</text>
<text text-anchor="start" x="308.587" y="-351.3" font-family="Times,serif" font-size="14.00">age :integer</text>
<text text-anchor="start" x="308.587" y="-337.3" font-family="Times,serif" font-size="14.00">sex :character varying</text>
<text text-anchor="start" x="308.587" y="-323.3" font-family="Times,serif" font-size="14.00">created_at :timestamp without time zone</text>
<text text-anchor="start" x="308.587" y="-309.3" font-family="Times,serif" font-size="14.00">updated_at :timestamp without time zone</text>
</g>
<!-- Patient&#45;&gt;Answer -->
<g id="edge2" class="edge"><title>Patient&#45;&gt;Answer</title>
<path fill="none" stroke="#ea1e92" d="M366.097,-295.795C360.562,-288.518 354.987,-281.19 349.55,-274.044"/>
<ellipse fill="none" stroke="#ea1e92" cx="368.721" cy="-299.244" rx="4.00002" ry="4.00002"/>
<polygon fill="#ea1e92" stroke="#ea1e92" points="349.297,-273.711 346.824,-263.028 346.27,-269.732 343.243,-265.752 343.243,-265.752 343.243,-265.752 346.27,-269.732 339.661,-268.477 349.297,-273.711 349.297,-273.711"/>
</g>
<!-- Patient&#45;&gt;AnswerGroup -->
<g id="edge3" class="edge"><title>Patient&#45;&gt;AnswerGroup</title>
<path fill="none" stroke="#edf937" d="M431.606,-292.245C436.237,-240.317 442.192,-173.533 446.55,-124.657"/>
<polygon fill="#edf937" stroke="#edf937" points="431.587,-292.463 426.216,-302.023 431.143,-297.443 430.699,-302.423 430.699,-302.423 430.699,-302.423 431.143,-297.443 435.181,-302.823 431.587,-292.463 431.587,-292.463"/>
<polygon fill="#edf937" stroke="#edf937" points="446.567,-124.471 451.937,-114.91 447.011,-119.491 447.455,-114.511 447.455,-114.511 447.455,-114.511 447.011,-119.491 442.973,-114.111 446.567,-124.471 446.567,-124.471"/>
</g>
<!-- Question -->
<g id="node5" class="node"><title>Question</title>
<path fill="none" stroke="black" d="M549.587,-151.5C549.587,-151.5 773.312,-151.5 773.312,-151.5 779.312,-151.5 785.312,-157.5 785.312,-163.5 785.312,-163.5 785.312,-253.5 785.312,-253.5 785.312,-259.5 779.312,-265.5 773.312,-265.5 773.312,-265.5 549.587,-265.5 549.587,-265.5 543.587,-265.5 537.587,-259.5 537.587,-253.5 537.587,-253.5 537.587,-163.5 537.587,-163.5 537.587,-157.5 543.587,-151.5 549.587,-151.5"/>
<text text-anchor="middle" x="661.45" y="-250.3" font-family="Times,serif" font-size="14.00">Question</text>
<polyline fill="none" stroke="black" points="537.587,-243.5 785.312,-243.5 "/>
<text text-anchor="start" x="545.587" y="-228.3" font-family="Times,serif" font-size="14.00">id :integer</text>
<text text-anchor="start" x="545.587" y="-214.3" font-family="Times,serif" font-size="14.00">order :integer</text>
<text text-anchor="start" x="545.587" y="-200.3" font-family="Times,serif" font-size="14.00">name :character varying</text>
<text text-anchor="start" x="545.587" y="-186.3" font-family="Times,serif" font-size="14.00">type_test_id :integer</text>
<text text-anchor="start" x="545.587" y="-172.3" font-family="Times,serif" font-size="14.00">created_at :timestamp without time zone</text>
<text text-anchor="start" x="545.587" y="-158.3" font-family="Times,serif" font-size="14.00">updated_at :timestamp without time zone</text>
</g>
<!-- Question&#45;&gt;AnswerGroup -->
<g id="edge4" class="edge"><title>Question&#45;&gt;AnswerGroup</title>
<path fill="none" stroke="#d97f4d" d="M575.956,-146.55C563.897,-137.953 551.489,-129.107 539.402,-120.49"/>
<ellipse fill="none" stroke="#d97f4d" cx="579.477" cy="-149.06" rx="4.00002" ry="4.00002"/>
<polygon fill="#d97f4d" stroke="#d97f4d" points="539.238,-120.373 533.707,-110.903 535.166,-117.47 531.095,-114.568 531.095,-114.568 531.095,-114.568 535.166,-117.47 528.483,-118.232 539.238,-120.373 539.238,-120.373"/>
</g>
<!-- TypeTest -->
<g id="node6" class="node"><title>TypeTest</title>
<path fill="none" stroke="black" d="M578.587,-323.5C578.587,-323.5 802.312,-323.5 802.312,-323.5 808.312,-323.5 814.312,-329.5 814.312,-335.5 814.312,-335.5 814.312,-411.5 814.312,-411.5 814.312,-417.5 808.312,-423.5 802.312,-423.5 802.312,-423.5 578.587,-423.5 578.587,-423.5 572.587,-423.5 566.587,-417.5 566.587,-411.5 566.587,-411.5 566.587,-335.5 566.587,-335.5 566.587,-329.5 572.587,-323.5 578.587,-323.5"/>
<text text-anchor="middle" x="690.45" y="-408.3" font-family="Times,serif" font-size="14.00">TypeTest</text>
<polyline fill="none" stroke="black" points="566.587,-401.5 814.312,-401.5 "/>
<text text-anchor="start" x="574.587" y="-386.3" font-family="Times,serif" font-size="14.00">id :integer</text>
<text text-anchor="start" x="574.587" y="-372.3" font-family="Times,serif" font-size="14.00">name :character varying</text>
<text text-anchor="start" x="574.587" y="-358.3" font-family="Times,serif" font-size="14.00">instruction :text</text>
<text text-anchor="start" x="574.587" y="-344.3" font-family="Times,serif" font-size="14.00">created_at :timestamp without time zone</text>
<text text-anchor="start" x="574.587" y="-330.3" font-family="Times,serif" font-size="14.00">updated_at :timestamp without time zone</text>
</g>
<!-- TypeTest&#45;&gt;Question -->
<g id="edge5" class="edge"><title>TypeTest&#45;&gt;Question</title>
<path fill="none" stroke="#71059e" d="M680.203,-314.904C677.929,-302.125 675.502,-288.485 673.175,-275.402"/>
<ellipse fill="none" stroke="#71059e" cx="680.969" cy="-319.214" rx="4.00001" ry="4.00001"/>
<polygon fill="#71059e" stroke="#71059e" points="673.17,-275.375 675.849,-264.741 672.294,-270.452 671.418,-265.529 671.418,-265.529 671.418,-265.529 672.294,-270.452 666.988,-266.318 673.17,-275.375 673.17,-275.375"/>
</g>
<!-- User -->
<g id="node7" class="node"><title>User</title>
<path fill="none" stroke="black" d="M236.587,-481.5C236.587,-481.5 460.312,-481.5 460.312,-481.5 466.312,-481.5 472.312,-487.5 472.312,-493.5 472.312,-493.5 472.312,-569.5 472.312,-569.5 472.312,-575.5 466.312,-581.5 460.312,-581.5 460.312,-581.5 236.587,-581.5 236.587,-581.5 230.587,-581.5 224.587,-575.5 224.587,-569.5 224.587,-569.5 224.587,-493.5 224.587,-493.5 224.587,-487.5 230.587,-481.5 236.587,-481.5"/>
<text text-anchor="middle" x="348.45" y="-566.3" font-family="Times,serif" font-size="14.00">User</text>
<polyline fill="none" stroke="black" points="224.587,-559.5 472.312,-559.5 "/>
<text text-anchor="start" x="232.587" y="-544.3" font-family="Times,serif" font-size="14.00">id :integer</text>
<text text-anchor="start" x="232.587" y="-530.3" font-family="Times,serif" font-size="14.00">name :character varying</text>
<text text-anchor="start" x="232.587" y="-516.3" font-family="Times,serif" font-size="14.00">email :character varying</text>
<text text-anchor="start" x="232.587" y="-502.3" font-family="Times,serif" font-size="14.00">created_at :timestamp without time zone</text>
<text text-anchor="start" x="232.587" y="-488.3" font-family="Times,serif" font-size="14.00">updated_at :timestamp without time zone</text>
</g>
<!-- User&#45;&gt;Answer -->
<g id="edge6" class="edge"><title>User&#45;&gt;Answer</title>
<path fill="none" stroke="#2e17d5" d="M304.547,-474.413C299.167,-465.035 294.498,-455.069 291.45,-445 274.68,-389.613 279.188,-323.541 286.581,-275.498"/>
<ellipse fill="none" stroke="#2e17d5" cx="306.724" cy="-478.033" rx="4.00002" ry="4.00002"/>
<polygon fill="#2e17d5" stroke="#2e17d5" points="286.596,-275.402 292.638,-266.25 287.396,-270.466 288.196,-265.53 288.196,-265.53 288.196,-265.53 287.396,-270.466 283.754,-264.811 286.596,-275.402 286.596,-275.402"/>
</g>
<!-- User&#45;&gt;Patient -->
<g id="edge7" class="edge"><title>User&#45;&gt;Patient</title>
<path fill="none" stroke="#951a58" d="M376.954,-471.991C379.876,-465.993 382.878,-459.831 385.885,-453.659"/>
<polygon fill="#951a58" stroke="#951a58" points="376.876,-472.151 368.451,-479.17 374.686,-476.646 372.497,-481.141 372.497,-481.141 372.497,-481.141 374.686,-476.646 376.542,-483.112 376.876,-472.151 376.876,-472.151"/>
<polygon fill="#951a58" stroke="#951a58" points="385.905,-453.618 394.33,-446.599 388.095,-449.123 390.285,-444.628 390.285,-444.628 390.285,-444.628 388.095,-449.123 386.239,-442.657 385.905,-453.618 385.905,-453.618"/>
</g>
</g>
</svg>
