<?xml version="1.0" encoding="UTF-8" standalone="no"?>
<!DOCTYPE svg PUBLIC "-//W3C//DTD SVG 1.1//EN"
 "http://www.w3.org/Graphics/SVG/1.1/DTD/svg11.dtd">
<!-- Generated by graphviz version 2.38.0 (20140413.2041)
 -->
<!-- Title: models_diagram Pages: 1 -->
<svg width="414pt" height="297pt"
 viewBox="0.00 0.00 413.99 297.00" xmlns="http://www.w3.org/2000/svg" xmlns:xlink="http://www.w3.org/1999/xlink">
<g id="graph0" class="graph" transform="scale(1 1) rotate(0) translate(4 293)">
<title>models_diagram</title>
<polygon fill="none" stroke="none" points="-4,4 -4,-293 409.995,-293 409.995,4 -4,4"/>
<!-- _diagram_info -->
<g id="node1" class="node"><title>_diagram_info</title>
<text text-anchor="start" x="8" y="-274.6" font-family="Times,serif" font-size="13.00">Models diagram</text>
<text text-anchor="start" x="8" y="-261.6" font-family="Times,serif" font-size="13.00">Date: Jul 16 2016 &#45; 23:43</text>
<text text-anchor="start" x="8" y="-248.6" font-family="Times,serif" font-size="13.00">Migration version: 20160713051417</text>
<text text-anchor="start" x="8" y="-235.6" font-family="Times,serif" font-size="13.00">Generated by RailRoady 1.5.1</text>
<text text-anchor="start" x="8" y="-222.6" font-family="Times,serif" font-size="13.00">http://railroady.prestonlee.com</text>
</g>
<!-- Answer -->
<g id="node2" class="node"><title>Answer</title>
<ellipse fill="none" stroke="black" cx="286.688" cy="-90" rx="37.7266" ry="18"/>
<text text-anchor="middle" x="286.688" y="-85.8" font-family="Times,serif" font-size="14.00">Answer</text>
</g>
<!-- AnswerGroup -->
<g id="node3" class="node"><title>AnswerGroup</title>
<ellipse fill="none" stroke="black" cx="286.688" cy="-18" rx="60.4202" ry="18"/>
<text text-anchor="middle" x="286.688" y="-13.8" font-family="Times,serif" font-size="14.00">AnswerGroup</text>
</g>
<!-- Answer&#45;&gt;AnswerGroup -->
<g id="edge1" class="edge"><title>Answer&#45;&gt;AnswerGroup</title>
<path fill="none" stroke="#5429e9" d="M286.688,-63.6398C286.688,-58.0629 286.688,-52.1319 286.688,-46.4761"/>
<ellipse fill="none" stroke="#5429e9" cx="286.688" cy="-67.6966" rx="4" ry="4"/>
<polygon fill="#5429e9" stroke="#5429e9" points="286.688,-46.1043 291.188,-36.1043 286.688,-41.1043 286.688,-36.1043 286.688,-36.1043 286.688,-36.1043 286.688,-41.1043 282.188,-36.1044 286.688,-46.1043 286.688,-46.1043"/>
</g>
<!-- MchatTest -->
<g id="node4" class="node"><title>MchatTest</title>
<ellipse fill="none" stroke="black" cx="358.688" cy="-162" rx="47.1153" ry="18"/>
<text text-anchor="middle" x="358.688" y="-157.8" font-family="Times,serif" font-size="14.00">MchatTest</text>
</g>
<!-- MchatTest&#45;&gt;Answer -->
<g id="edge3" class="edge"><title>MchatTest&#45;&gt;Answer</title>
<path fill="none" stroke="#10279a" d="M334.686,-137.665C326.824,-130.021 318.1,-121.539 310.269,-113.926"/>
<polygon fill="#10279a" stroke="#10279a" points="334.819,-137.794 338.852,-147.991 338.404,-141.279 341.989,-144.765 341.989,-144.765 341.989,-144.765 338.404,-141.279 345.125,-141.538 334.819,-137.794 334.819,-137.794"/>
<polygon fill="#10279a" stroke="#10279a" points="309.971,-113.637 305.938,-103.439 306.386,-110.151 302.801,-106.666 302.801,-106.666 302.801,-106.666 306.386,-110.151 299.664,-109.892 309.971,-113.637 309.971,-113.637"/>
</g>
<!-- MchatTest&#45;&gt;AnswerGroup -->
<g id="edge2" class="edge"><title>MchatTest&#45;&gt;AnswerGroup</title>
<path fill="none" stroke="#6d4229" d="M354.743,-135.758C351.125,-117.277 344.624,-92.0348 333.688,-72 328.003,-61.5864 319.929,-51.4951 312.073,-42.9619"/>
<ellipse fill="none" stroke="#6d4229" cx="355.485" cy="-139.796" rx="4.00001" ry="4.00001"/>
<polygon fill="#6d4229" stroke="#6d4229" points="311.925,-42.8079 308.239,-32.4801 308.46,-39.2033 304.995,-35.5987 304.995,-35.5987 304.995,-35.5987 308.46,-39.2033 301.751,-38.7174 311.925,-42.8079 311.925,-42.8079"/>
</g>
<!-- Patient -->
<g id="node5" class="node"><title>Patient</title>
<ellipse fill="none" stroke="black" cx="220.688" cy="-162" rx="34.8371" ry="18"/>
<text text-anchor="middle" x="220.688" y="-157.8" font-family="Times,serif" font-size="14.00">Patient</text>
</g>
<!-- Patient&#45;&gt;Answer -->
<g id="edge4" class="edge"><title>Patient&#45;&gt;Answer</title>
<path fill="none" stroke="#eb3017" d="M240.92,-139.542C248.343,-131.669 256.785,-122.715 264.38,-114.66"/>
<ellipse fill="none" stroke="#eb3017" cx="238.079" cy="-142.554" rx="4.00002" ry="4.00002"/>
<polygon fill="#eb3017" stroke="#eb3017" points="264.763,-114.253 274.898,-110.064 268.193,-110.615 271.624,-106.977 271.624,-106.977 271.624,-106.977 268.193,-110.615 268.349,-103.89 264.763,-114.253 264.763,-114.253"/>
</g>
<!-- Patient&#45;&gt;AnswerGroup -->
<g id="edge5" class="edge"><title>Patient&#45;&gt;AnswerGroup</title>
<path fill="none" stroke="#276df5" d="M222.854,-133.746C225.164,-115.482 229.919,-91.3321 239.688,-72 245.039,-61.4112 253.031,-51.2767 260.914,-42.7577"/>
<polygon fill="#276df5" stroke="#276df5" points="222.849,-133.798 217.285,-143.248 222.303,-138.769 221.758,-143.739 221.758,-143.739 221.758,-143.739 222.303,-138.769 226.231,-144.23 222.849,-133.798 222.849,-133.798"/>
<polygon fill="#276df5" stroke="#276df5" points="261.074,-42.5928 271.271,-38.558 264.559,-39.0072 268.044,-35.4217 268.044,-35.4217 268.044,-35.4217 264.559,-39.0072 264.817,-32.2853 261.074,-42.5928 261.074,-42.5928"/>
</g>
<!-- User -->
<g id="node6" class="node"><title>User</title>
<ellipse fill="none" stroke="black" cx="252.688" cy="-252.5" rx="27" ry="18"/>
<text text-anchor="middle" x="252.688" y="-248.3" font-family="Times,serif" font-size="14.00">User</text>
</g>
<!-- User&#45;&gt;Answer -->
<g id="edge6" class="edge"><title>User&#45;&gt;Answer</title>
<path fill="none" stroke="#55696c" d="M258.003,-226.411C264.244,-196.949 274.555,-148.272 280.967,-118.006"/>
<ellipse fill="none" stroke="#55696c" cx="257.091" cy="-230.714" rx="4.00001" ry="4.00001"/>
<polygon fill="#55696c" stroke="#55696c" points="280.986,-117.913 287.461,-109.063 282.023,-113.021 283.059,-108.13 283.059,-108.13 283.059,-108.13 282.023,-113.021 278.657,-107.197 280.986,-117.913 280.986,-117.913"/>
</g>
<!-- User&#45;&gt;Patient -->
<g id="edge7" class="edge"><title>User&#45;&gt;Patient</title>
<path fill="none" stroke="#9ce6e3" d="M243.213,-225.295C239.104,-213.931 234.302,-200.651 230.19,-189.279"/>
<polygon fill="#9ce6e3" stroke="#9ce6e3" points="243.268,-225.45 242.437,-236.384 244.969,-230.152 246.669,-234.854 246.669,-234.854 246.669,-234.854 244.969,-230.152 250.901,-233.324 243.268,-225.45 243.268,-225.45"/>
<polygon fill="#9ce6e3" stroke="#9ce6e3" points="230.189,-189.277 231.02,-178.342 228.489,-184.574 226.789,-179.872 226.789,-179.872 226.789,-179.872 228.489,-184.574 222.557,-181.403 230.189,-189.277 230.189,-189.277"/>
</g>
</g>
</svg>
