<?xml version="1.0" encoding="UTF-8" standalone="no"?>
<!DOCTYPE svg PUBLIC "-//W3C//DTD SVG 1.1//EN"
 "http://www.w3.org/Graphics/SVG/1.1/DTD/svg11.dtd">
<!-- Generated by graphviz version 2.38.0 (20140413.2041)
 -->
<!-- Title: models_diagram Pages: 1 -->
<svg width="428pt" height="297pt"
 viewBox="0.00 0.00 427.72 297.00" xmlns="http://www.w3.org/2000/svg" xmlns:xlink="http://www.w3.org/1999/xlink">
<g id="graph0" class="graph" transform="scale(1 1) rotate(0) translate(4 293)">
<title>models_diagram</title>
<polygon fill="none" stroke="none" points="-4,4 -4,-293 423.718,-293 423.718,4 -4,4"/>
<!-- _diagram_info -->
<g id="node1" class="node"><title>_diagram_info</title>
<text text-anchor="start" x="8" y="-274.6" font-family="Times,serif" font-size="13.00">Models diagram</text>
<text text-anchor="start" x="8" y="-261.6" font-family="Times,serif" font-size="13.00">Date: Jul 17 2016 &#45; 00:42</text>
<text text-anchor="start" x="8" y="-248.6" font-family="Times,serif" font-size="13.00">Migration version: 20160717053113</text>
<text text-anchor="start" x="8" y="-235.6" font-family="Times,serif" font-size="13.00">Generated by RailRoady 1.5.1</text>
<text text-anchor="start" x="8" y="-222.6" font-family="Times,serif" font-size="13.00">http://railroady.prestonlee.com</text>
</g>
<!-- Answer -->
<g id="node2" class="node"><title>Answer</title>
<ellipse fill="none" stroke="black" cx="224.45" cy="-90" rx="37.7266" ry="18"/>
<text text-anchor="middle" x="224.45" y="-85.8" font-family="Times,serif" font-size="14.00">Answer</text>
</g>
<!-- AnswerGroup -->
<g id="node3" class="node"><title>AnswerGroup</title>
<ellipse fill="none" stroke="black" cx="290.45" cy="-18" rx="60.4202" ry="18"/>
<text text-anchor="middle" x="290.45" y="-13.8" font-family="Times,serif" font-size="14.00">AnswerGroup</text>
</g>
<!-- Answer&#45;&gt;AnswerGroup -->
<g id="edge1" class="edge"><title>Answer&#45;&gt;AnswerGroup</title>
<path fill="none" stroke="#245dbc" d="M245.115,-67.0823C252.259,-59.5057 260.303,-50.9738 267.611,-43.2232"/>
<ellipse fill="none" stroke="#245dbc" cx="242.17" cy="-70.2055" rx="4.00002" ry="4.00002"/>
<polygon fill="#245dbc" stroke="#245dbc" points="267.752,-43.0733 277.886,-38.8844 271.182,-39.4353 274.612,-35.7973 274.612,-35.7973 274.612,-35.7973 271.182,-39.4353 271.338,-32.7103 267.752,-43.0733 267.752,-43.0733"/>
</g>
<!-- Patient -->
<g id="node4" class="node"><title>Patient</title>
<ellipse fill="none" stroke="black" cx="282.45" cy="-162" rx="34.8371" ry="18"/>
<text text-anchor="middle" x="282.45" y="-157.8" font-family="Times,serif" font-size="14.00">Patient</text>
</g>
<!-- Patient&#45;&gt;Answer -->
<g id="edge2" class="edge"><title>Patient&#45;&gt;Answer</title>
<path fill="none" stroke="#9f072d" d="M263.973,-138.7C257.77,-131.214 250.824,-122.831 244.506,-115.206"/>
<ellipse fill="none" stroke="#9f072d" cx="266.737" cy="-142.036" rx="4.00002" ry="4.00002"/>
<polygon fill="#9f072d" stroke="#9f072d" points="244.341,-115.007 241.426,-104.436 241.151,-111.157 237.961,-107.307 237.961,-107.307 237.961,-107.307 241.151,-111.157 234.496,-110.178 244.341,-115.007 244.341,-115.007"/>
</g>
<!-- Patient&#45;&gt;AnswerGroup -->
<g id="edge3" class="edge"><title>Patient&#45;&gt;AnswerGroup</title>
<path fill="none" stroke="#14934f" d="M283.989,-133.679C285.402,-108.599 287.485,-71.6271 288.901,-46.4929"/>
<polygon fill="#14934f" stroke="#14934f" points="283.977,-133.887 278.922,-143.618 283.696,-138.879 283.415,-143.871 283.415,-143.871 283.415,-143.871 283.696,-138.879 287.908,-144.125 283.977,-133.887 283.977,-133.887"/>
<polygon fill="#14934f" stroke="#14934f" points="288.919,-46.1734 293.974,-36.4424 289.2,-41.1813 289.481,-36.1893 289.481,-36.1893 289.481,-36.1893 289.2,-41.1813 284.988,-35.9361 288.919,-46.1734 288.919,-46.1734"/>
</g>
<!-- Question -->
<g id="node5" class="node"><title>Question</title>
<ellipse fill="none" stroke="black" cx="371.45" cy="-90" rx="42.0784" ry="18"/>
<text text-anchor="middle" x="371.45" y="-85.8" font-family="Times,serif" font-size="14.00">Question</text>
</g>
<!-- Question&#45;&gt;AnswerGroup -->
<g id="edge4" class="edge"><title>Question&#45;&gt;AnswerGroup</title>
<path fill="none" stroke="#fedc18" d="M347.343,-68.1673C337.816,-59.9338 326.833,-50.4421 317.072,-42.0073"/>
<ellipse fill="none" stroke="#fedc18" cx="350.447" cy="-70.8493" rx="4.00002" ry="4.00002"/>
<polygon fill="#fedc18" stroke="#fedc18" points="316.787,-41.7602 312.163,-31.8168 313.003,-38.4909 309.22,-35.2216 309.22,-35.2216 309.22,-35.2216 313.003,-38.4909 306.278,-38.6264 316.787,-41.7602 316.787,-41.7602"/>
</g>
<!-- TypeTest -->
<g id="node6" class="node"><title>TypeTest</title>
<ellipse fill="none" stroke="black" cx="377.45" cy="-162" rx="42.0373" ry="18"/>
<text text-anchor="middle" x="377.45" y="-157.8" font-family="Times,serif" font-size="14.00">TypeTest</text>
</g>
<!-- TypeTest&#45;&gt;Question -->
<g id="edge5" class="edge"><title>TypeTest&#45;&gt;Question</title>
<path fill="none" stroke="#fd5760" d="M375.276,-135.64C374.798,-130.063 374.29,-124.132 373.805,-118.476"/>
<ellipse fill="none" stroke="#fd5760" cx="375.625" cy="-139.711" rx="4" ry="4"/>
<polygon fill="#fd5760" stroke="#fd5760" points="373.77,-118.068 377.399,-107.72 373.343,-113.086 372.916,-108.104 372.916,-108.104 372.916,-108.104 373.343,-113.086 368.432,-108.489 373.77,-118.068 373.77,-118.068"/>
</g>
<!-- User -->
<g id="node7" class="node"><title>User</title>
<ellipse fill="none" stroke="black" cx="251.45" cy="-252.5" rx="27" ry="18"/>
<text text-anchor="middle" x="251.45" y="-248.3" font-family="Times,serif" font-size="14.00">User</text>
</g>
<!-- User&#45;&gt;Answer -->
<g id="edge6" class="edge"><title>User&#45;&gt;Answer</title>
<path fill="none" stroke="#25b083" d="M246.744,-226.45C244.208,-212.743 241.069,-195.452 238.45,-180 234.942,-159.311 231.266,-135.865 228.561,-118.232"/>
<ellipse fill="none" stroke="#25b083" cx="247.505" cy="-230.54" rx="4.00001" ry="4.00001"/>
<polygon fill="#25b083" stroke="#25b083" points="228.521,-117.967 231.462,-107.403 227.767,-113.024 227.013,-108.082 227.013,-108.082 227.013,-108.082 227.767,-113.024 222.565,-108.76 228.521,-117.967 228.521,-117.967"/>
</g>
<!-- User&#45;&gt;Patient -->
<g id="edge7" class="edge"><title>User&#45;&gt;Patient</title>
<path fill="none" stroke="#861df1" d="M260.629,-225.295C264.569,-214.046 269.167,-200.919 273.124,-189.624"/>
<polygon fill="#861df1" stroke="#861df1" points="260.587,-225.416 253.034,-233.366 258.934,-230.135 257.281,-234.854 257.281,-234.854 257.281,-234.854 258.934,-230.135 261.528,-236.342 260.587,-225.416 260.587,-225.416"/>
<polygon fill="#861df1" stroke="#861df1" points="273.234,-189.31 280.787,-181.36 274.887,-184.591 276.54,-179.872 276.54,-179.872 276.54,-179.872 274.887,-184.591 272.293,-178.385 273.234,-189.31 273.234,-189.31"/>
</g>
</g>
</svg>
